<svg width="15" height="16" viewBox="0 0 15 16" fill="none" xmlns="http://www.w3.org/2000/svg">
<rect x="15" y="0.5" width="2.99996" height="3" transform="rotate(90 15 0.5)" fill="#D9D9D9"/>
<rect x="12" y="3.5" width="2.99996" height="3" transform="rotate(90 12 3.5)" fill="#D9D9D9"/>
<rect x="12" y="9.5" width="2.99996" height="3" transform="rotate(90 12 9.5)" fill="#D9D9D9"/>
<rect x="15" y="12.5" width="2.99996" height="3" transform="rotate(90 15 12.5)" fill="#D9D9D9"/>
<rect x="9" y="6.5" width="2.99996" height="3" transform="rotate(90 9 6.5)" fill="#D9D9D9"/>
<rect y="15.5" width="2.99996" height="3" transform="rotate(-90 0 15.5)" fill="#D9D9D9"/>
<rect x="3" y="12.5" width="2.99996" height="3" transform="rotate(-90 3 12.5)" fill="#D9D9D9"/>
<rect x="3" y="6.5" width="2.99996" height="3" transform="rotate(-90 3 6.5)" fill="#D9D9D9"/>
<rect y="3.5" width="2.99996" height="3" transform="rotate(-90 0 3.5)" fill="#D9D9D9"/>
<rect x="6" y="9.5" width="2.99996" height="3" transform="rotate(-90 6 9.5)" fill="#D9D9D9"/>
</svg>
